<svg width="24" height="23" viewBox="0 0 24 23" fill="none" xmlns="http://www.w3.org/2000/svg">
<path fill-rule="evenodd" clip-rule="evenodd" d="M11.4129 22.7231C11.2652 22.6561 8.78114 20.2328 5.89271 17.3378C0.197369 11.6297 0.426205 11.8997 0.581568 11.0724C0.664171 10.6322 1.19953 10.0971 1.64002 10.0146C2.45603 9.86154 2.31481 9.74742 6.60124 14.0231L10.56 17.9718L10.5837 9.41721C10.6073 0.935112 10.609 0.860521 10.792 0.615635C11.1426 0.146255 11.4287 -0.000156403 11.9946 -0.000156403C12.5606 -0.000156403 12.8466 0.146255 13.1972 0.615635C13.3803 0.860521 13.382 0.935112 13.4055 9.41721L13.4292 17.9718L17.388 14.0231C21.6744 9.74742 21.5332 9.86154 22.3492 10.0146C22.7897 10.0971 23.3251 10.6322 23.4077 11.0724C23.563 11.8997 23.7919 11.6297 18.0965 17.3379C15.078 20.3635 12.7224 22.6548 12.5568 22.7266C12.1972 22.8828 11.7624 22.8814 11.4129 22.7231Z" fill="#777777"/>
</svg>
