<svg width="7" height="5" viewBox="0 0 7 5" fill="none" xmlns="http://www.w3.org/2000/svg">
<path fill-rule="evenodd" clip-rule="evenodd" d="M6.34785 0.515585C6.21407 0.556422 6.20995 0.56019 4.51168 2.19379L2.8407 3.80115L2.08461 3.07424C1.38229 2.39903 1.32242 2.34459 1.24307 2.30883C1.04136 2.21795 0.826848 2.24667 0.666815 2.38596C0.539846 2.49647 0.477086 2.67231 0.507633 2.83194C0.538906 2.99535 0.51926 2.97407 1.57355 3.98672C2.49581 4.87255 2.5529 4.92497 2.63097 4.95775C2.72983 4.99924 2.86666 5.01189 2.95819 4.988C3.11287 4.9476 3.04662 5.00806 5.02717 3.10009C7.07893 1.1235 6.96174 1.24455 6.99293 1.06931C7.03608 0.826721 6.878 0.590494 6.62256 0.515842C6.55062 0.494824 6.41628 0.494701 6.34785 0.515585Z" fill="white"/>
</svg>
