<svg width="22" height="15" viewBox="0 0 22 15" fill="none" xmlns="http://www.w3.org/2000/svg">
<path fill-rule="evenodd" clip-rule="evenodd" d="M1.48502 0.0600847C1.12333 0.147854 0.852566 0.297731 0.579832 0.561205C0.298935 0.832593 0.129125 1.13143 0.0509005 1.49213C-0.0174872 1.80738 -0.016714 13.1958 0.0517167 13.5058C0.209069 14.2187 0.810726 14.8025 1.54083 14.9508C1.86485 15.0166 20.137 15.0163 20.4592 14.9505C21.1882 14.8016 21.797 14.2114 21.9494 13.5058C22.0175 13.19 22.0166 1.8013 21.9483 1.49213C21.79 0.77465 21.195 0.197382 20.4592 0.0473381C20.1119 -0.0235185 1.77876 -0.0111884 1.48502 0.0600847ZM15.6178 5.29385C13.3261 7.51765 11.3989 9.36405 11.3351 9.39695C11.2713 9.42986 11.1205 9.45677 11 9.45677C10.8795 9.45677 10.7288 9.42986 10.665 9.39695C10.6012 9.36405 8.67394 7.51765 6.38222 5.29385L2.21547 1.25057H11H19.7846L15.6178 5.29385ZM4.07315 10.1961L1.29172 12.8933V7.49895V2.1046L4.07315 4.80177L6.85458 7.49895L4.07315 10.1961ZM20.7083 7.50932V12.8933L17.9269 10.1962L15.1456 7.49903L17.9161 4.81219C19.4399 3.3344 20.6915 2.12534 20.6975 2.12534C20.7034 2.12534 20.7083 4.54813 20.7083 7.50932ZM8.76295 9.38717C9.68653 10.2734 9.80582 10.3734 10.1172 10.5223L10.4586 10.6856H10.9978C11.5327 10.6856 11.5397 10.6844 11.8761 10.5286C12.1903 10.3831 12.2908 10.2989 13.2414 9.38441L14.2675 8.39721L17.0261 11.0723L19.7847 13.7473H11.0001H2.21555L4.96455 11.0814C6.47651 9.61506 7.7218 8.41537 7.73185 8.41537C7.7419 8.41537 8.20588 8.85268 8.76295 9.38717Z" fill="#00B9FF"/>
</svg>
