<svg width="30" height="30" viewBox="0 0 30 30" fill="none" xmlns="http://www.w3.org/2000/svg">
<path fill-rule="evenodd" clip-rule="evenodd" d="M11.1615 0.0100406C8.56904 0.193679 6.24191 1.09518 4.34054 2.65243C3.81076 3.08634 2.88489 4.02365 2.50568 4.50995C-0.131957 7.89261 -0.739273 12.478 0.931989 16.3909C3.14071 21.562 8.61679 24.453 14.1265 23.3569C15.0012 23.1829 16.1032 22.806 16.9563 22.3891L17.6787 22.0361L21.4246 25.7621C25.4163 29.7326 25.3747 29.6963 26.1834 29.9116C26.8689 30.094 27.7571 29.9883 28.394 29.6484C28.7906 29.4368 29.3885 28.8389 29.6001 28.4423C29.9399 27.8054 30.0457 26.9172 29.8632 26.2317C29.6479 25.4227 29.6851 25.4653 25.7109 21.4729L21.9822 17.727L22.2249 17.2887C23.4348 15.1042 23.8707 12.1594 23.3693 9.55608C22.428 4.66721 18.4331 0.837906 13.537 0.131065C12.8855 0.037023 11.6613 -0.0253472 11.1615 0.0100406ZM12.8846 1.49907C16.0243 1.84399 18.7713 3.49649 20.4904 6.0745C22.2839 8.76402 22.7397 12.0683 21.7381 15.1187C20.5674 18.6839 17.6608 21.2764 13.9176 22.0943C13.3665 22.2147 13.1219 22.2305 11.8315 22.2294C10.5649 22.2284 10.2923 22.2109 9.78994 22.0985C6.93249 21.459 4.68869 19.9556 3.14412 17.6457C0.254324 13.3241 1.03456 7.43586 4.9467 4.04241C7.16875 2.11497 10.0596 1.18868 12.8846 1.49907ZM10.4611 7.44372C8.19804 7.83791 6.13319 9.25811 4.94189 11.2398C4.59928 11.8097 4.6075 11.9685 5.01333 12.6196C6.19386 14.5137 8.02196 15.7789 10.2969 16.2764C10.9912 16.4282 12.6612 16.4269 13.3706 16.274C14.4256 16.0466 15.3994 15.6392 16.3094 15.0446C17.2806 14.4101 18.7156 12.7628 18.935 12.0307C18.9984 11.8189 18.989 11.7653 18.8376 11.4727C18.5607 10.938 18.0131 10.2136 17.4913 9.69184C16.2988 8.49926 14.7944 7.72298 13.1179 7.43507C12.4411 7.31885 11.1538 7.32306 10.4611 7.44372ZM12.6877 8.83346C13.044 9.00778 13.3686 9.33407 13.5798 9.73009C13.6971 9.95003 13.7193 10.0838 13.7192 10.5703C13.7191 11.0794 13.6996 11.186 13.5566 11.4573C13.3622 11.8264 12.9858 12.1809 12.6003 12.3579C12.3874 12.4556 12.2001 12.487 11.8315 12.4865C11.1949 12.4856 10.8152 12.3223 10.4041 11.8725C9.43862 10.8162 9.89349 9.15743 11.2726 8.705C11.6486 8.58173 12.2926 8.64014 12.6877 8.83346ZM8.6872 9.76329C8.24159 11.4718 9.24859 13.2109 10.9716 13.7083C11.7343 13.9285 12.7566 13.797 13.4614 13.3881C14.6129 12.7199 15.28 11.256 15.0092 9.99169C14.959 9.75719 14.8975 9.51368 14.8725 9.45052C14.8335 9.35179 14.8691 9.35971 15.1261 9.50686C15.9152 9.95856 16.6685 10.6298 17.2301 11.3817L17.586 11.8581L17.3329 12.2344C16.9848 12.7522 16.0658 13.654 15.5223 14.0112C14.9819 14.3663 14.1333 14.7418 13.5065 14.9031C11.6817 15.3726 9.75023 15.0532 8.14883 14.0172C7.28003 13.4552 5.9998 12.0441 6.13301 11.7952C6.38925 11.3164 7.176 10.4519 7.75067 10.0176C7.98712 9.83893 8.74494 9.35215 8.78666 9.35215C8.79093 9.35215 8.74616 9.53713 8.6872 9.76329ZM28.549 26.376C28.8641 27.2243 28.5116 28.1274 27.7128 28.5182C27.4321 28.6555 27.2873 28.6866 26.939 28.6844C26.1653 28.6795 26.2865 28.7806 22.3508 24.8587L18.8004 21.3206L18.9463 21.1988C19.8785 20.4205 20.2773 20.0396 20.7321 19.4924L21.2688 18.8467L24.8411 22.4286C28.2486 25.8455 28.4195 26.0274 28.549 26.376Z" fill="#00B9FF"/>
</svg>
