<svg width="30" height="30" viewBox="0 0 30 30" fill="none" xmlns="http://www.w3.org/2000/svg">
<path fill-rule="evenodd" clip-rule="evenodd" d="M0 3.07617V6.15234H0.498047H0.996094V3.57422V0.996094H15H29.0039V3.57422V6.15234H29.502H30V3.07617V0H15H0V3.07617ZM4.3848 2.44629C4.35908 3.06287 4.18594 3.48984 3.80859 3.86719C3.43125 4.24453 3.00428 4.41768 2.3877 4.4434L1.875 4.46479V5.30854V6.15234H2.37023H2.86553L2.88293 5.78977L2.90039 5.42713L3.18234 5.35541C4.13789 5.11242 4.95645 4.32562 5.27074 3.34816L5.40533 2.92969H15H24.5947L24.7293 3.34816C25.0436 4.32562 25.8621 5.11242 26.8177 5.35541L27.0996 5.42713L27.1171 5.78977L27.1345 6.15234H27.6298H28.125V5.30854V4.46479L27.6123 4.4434C26.9957 4.41768 26.5688 4.24453 26.1914 3.86719C25.8141 3.48984 25.6409 3.06287 25.6152 2.44629L25.5938 1.93359H15H4.40619L4.3848 2.44629ZM14.5195 3.8775C12.8333 4.03529 11.388 5.34961 11.0998 6.9873L11.0612 7.20703H5.53061H0V10.2832V13.3594H0.498047H0.996094V10.7812V8.20312H15H29.0039V10.7812V13.3594H29.502H30V10.2832V7.20703H24.4694H18.9388L18.9002 6.9873C18.7736 6.26813 18.3155 5.41354 17.8074 4.94918C16.8755 4.09729 15.8261 3.75522 14.5195 3.8775ZM15.7826 4.95609C16.3162 5.09373 16.768 5.35951 17.1575 5.76516C17.5382 6.16166 17.7887 6.59801 17.8478 6.96779L17.8861 7.20703H15H12.1139L12.1522 6.96779C12.2437 6.39551 12.8808 5.57443 13.4919 5.24109C14.1568 4.8784 15.0502 4.7673 15.7826 4.95609ZM4.39453 9.57785C4.39453 10.1558 4.2382 10.5693 3.86549 10.977C3.47918 11.3997 3.04084 11.5953 2.37422 11.6423L1.875 11.6776V12.5185V13.3594H2.37023H2.86553L2.88293 13.0003L2.90039 12.6413L3.2915 12.5098C3.95039 12.2882 4.38762 11.9802 4.78283 11.459C5.06731 11.0838 5.1883 10.8424 5.29857 10.4297L5.369 10.166H15H24.631L24.7014 10.4297C24.8117 10.8424 24.9327 11.0838 25.2172 11.459C25.6124 11.9802 26.0496 12.2882 26.7085 12.5098L27.0996 12.6413L27.1171 13.0003L27.1345 13.3594H27.6298H28.125V12.5185V11.6776L27.6258 11.6423C26.9592 11.5953 26.5208 11.3997 26.1345 10.977C25.7618 10.5693 25.6055 10.1558 25.6055 9.57785V9.14062H15H4.39453V9.57785ZM14.209 11.0975C13.3512 11.2634 12.6744 11.6419 12.048 12.3059C11.6217 12.7579 11.2525 13.4454 11.1285 14.0186L11.0556 14.3555H5.52779H0V22.1777V30H15H30V22.1777V14.3555H24.4722H18.9444L18.8715 14.0186C18.8314 13.8333 18.6921 13.4575 18.5618 13.1836C18.3667 12.7733 18.236 12.5975 17.8198 12.186C17.2726 11.645 16.7535 11.339 16.084 11.1628C15.5885 11.0323 14.705 11.0016 14.209 11.0975ZM15.94 12.19C16.8364 12.4488 17.5632 13.1759 17.8378 14.0883L17.9182 14.3555H15H12.0818L12.1622 14.0883C12.6337 12.5216 14.2595 11.7046 15.94 12.19ZM28.9895 22.1924L29.0044 29.0039H15.0002H0.996094V22.2168C0.996094 18.4839 1.01373 15.412 1.03529 15.3905C1.05686 15.369 7.35199 15.3579 15.0246 15.3661L28.9746 15.3809L28.9895 22.1924ZM4.38434 16.9198C4.35422 17.5492 4.20809 17.8871 3.78035 18.3162C3.41754 18.6801 3.00668 18.8483 2.34516 18.9034L1.87406 18.9427L1.88918 22.2594L1.9043 25.5762L2.40234 25.6075C3.25852 25.6614 3.87891 26.06 4.20914 26.7687C4.32949 27.0269 4.36811 27.2122 4.3848 27.6123L4.40619 28.125H15H25.5938L25.6152 27.6123C25.6319 27.2122 25.6705 27.0269 25.7909 26.7687C26.1211 26.06 26.7415 25.6614 27.5977 25.6075L28.0957 25.5762L28.1108 22.2594L28.1259 18.9427L27.6548 18.9034C26.9933 18.8483 26.5825 18.6801 26.2196 18.3162C25.7919 17.8871 25.6458 17.5492 25.6157 16.9198L25.5911 16.4062H15H4.40889L4.38434 16.9198ZM24.7244 17.7608C25.026 18.7355 25.8907 19.5654 26.8586 19.8091L27.1289 19.8772V22.2376V24.5979L26.7309 24.7188C26.0538 24.9245 25.3962 25.4316 25.0259 26.0336C24.9505 26.1562 24.8271 26.433 24.7517 26.6488L24.6146 27.041H15H5.38535L5.2483 26.6488C5.17295 26.433 5.04955 26.1562 4.97408 26.0336C4.60383 25.4316 3.94623 24.9245 3.26906 24.7188L2.87109 24.5979V22.2376V19.8772L3.14145 19.8091C4.08797 19.5708 4.99758 18.7056 5.27139 17.7832C5.30965 17.6543 5.35131 17.5158 5.36402 17.4754C5.38242 17.4169 7.3394 17.405 15.0048 17.4168L24.6226 17.4316L24.7244 17.7608ZM14.1211 18.3724C12.7814 18.6601 11.5656 19.8085 11.2008 21.1308C10.8723 22.3215 11.0505 23.4525 11.7257 24.462C12.2061 25.1802 12.9337 25.7351 13.7695 26.0206C14.2928 26.1993 15.3336 26.2413 15.9082 26.1069C17.0422 25.8415 18.0229 25.0562 18.5466 23.9941C18.8396 23.3998 18.9484 22.9219 18.9468 22.2363C18.943 20.6832 18.1309 19.384 16.7285 18.6877C15.9445 18.2984 14.9984 18.184 14.1211 18.3724ZM15.6762 19.3683C16.2253 19.5112 16.6332 19.7443 17.0551 20.1562C17.665 20.7519 17.9437 21.4126 17.9406 22.2561C17.9378 23.0616 17.6346 23.7752 17.0481 24.3565C16.6889 24.7126 16.227 24.9728 15.724 25.1025C13.8804 25.5778 12.0662 24.1686 12.0594 22.2561C12.0563 21.4126 12.335 20.7519 12.9449 20.1562C13.7115 19.4078 14.7154 19.1181 15.6762 19.3683ZM8.68418 21.9287L8.70117 22.4121H9.16992H9.63867L9.65566 21.9287L9.67272 21.4453H9.16992H8.66713L8.68418 21.9287ZM20.3443 21.9287L20.3613 22.4121H20.8301H21.2988L21.3158 21.9287L21.3329 21.4453H20.8301H20.3273L20.3443 21.9287Z" fill="#00B9FF"/>
</svg>
