<svg width="25" height="40" viewBox="0 0 25 40" fill="none" xmlns="http://www.w3.org/2000/svg">
<path fill-rule="evenodd" clip-rule="evenodd" d="M11.6354 0.36632C10.9979 0.840702 9.98978 1.89189 9.40633 2.69072C7.81398 4.87072 6.84125 7.36878 6.3868 10.4446C6.17546 11.8745 6.14393 14.2803 6.30699 16.5244L6.41085 17.954L3.20547 22.2207L0 26.4874L0 28.918C0 31.1548 0.0123622 31.3639 0.155072 31.5402C0.252286 31.6602 0.401724 31.7316 0.555198 31.7316C0.725407 31.7316 1.87802 31.088 4.33159 29.6227C6.27377 28.4627 7.87234 27.5229 7.88395 27.5343C7.89547 27.5456 8.01362 28.0927 8.14649 28.75L8.3881 29.9452L8.05828 30.3409C7.58423 30.9094 7.08605 31.9723 6.92669 32.7548C6.65321 34.0983 6.89658 35.8211 7.57162 37.3199C7.85519 37.9496 7.9984 38.0949 8.33545 38.0949C8.6731 38.0949 8.87913 37.7795 8.94346 37.1644C8.99249 36.6951 9.3906 35.6 9.47974 35.6891C9.49984 35.7092 9.59142 36.0192 9.68334 36.3779C10.0073 37.6424 10.6366 38.7399 11.4791 39.51C12.058 40.0391 12.2636 40.104 12.6327 39.8744C13.5811 39.2848 14.5998 37.6653 14.8895 36.2868C14.9479 36.0093 15.0215 35.7522 15.0533 35.7155C15.1567 35.5957 15.5568 36.6324 15.6124 37.1644C15.6779 37.7914 15.8815 38.0949 16.2366 38.0949C16.5743 38.0949 16.7468 37.8946 17.063 37.1349C17.5653 35.9284 17.6886 35.3174 17.6927 34.0163C17.696 32.9407 17.6762 32.7808 17.4625 32.1662C17.1892 31.3801 16.9215 30.8867 16.476 30.348L16.1546 29.9594L16.4057 28.7543C16.5437 28.0915 16.6667 27.5391 16.6791 27.5268C16.6914 27.5144 18.2868 28.4555 20.2244 29.618C22.7147 31.1121 23.8204 31.7316 23.9965 31.7316C24.1544 31.7316 24.3026 31.6615 24.4008 31.5402C24.5435 31.3639 24.5559 31.1548 24.5559 28.918V26.4874L21.3504 22.2207L18.145 17.954L18.2478 16.5244C18.4096 14.2752 18.3781 11.8716 18.1683 10.4446C17.6095 6.64505 16.1819 3.56708 13.9228 1.2912C13.0048 0.36632 12.5355 0.000588797 12.2662 1.28603e-07C12.1903 -0.000168062 11.9065 0.164659 11.6354 0.36632ZM13.1376 2.17471C14.3979 3.48777 15.4501 5.20853 16.1138 7.04215L16.3956 7.82054H12.2783H8.16087L8.37658 7.21085C8.72902 6.21448 9.47436 4.72566 10.0643 3.83954C10.5563 3.10043 12.114 1.34519 12.2779 1.34519C12.3128 1.34519 12.6997 1.71849 13.1376 2.17471ZM16.8026 9.43937C17.4213 12.3348 17.2842 16.2644 16.3514 22.369C16.1171 23.9024 15.8249 25.61 15.7578 25.838C15.7175 25.9751 15.4783 25.9851 12.2779 25.9851C9.0776 25.9851 8.83834 25.9751 8.79806 25.838C8.73096 25.61 8.43881 23.9024 8.20443 22.369C7.26643 16.2302 7.13112 12.351 7.75326 9.43937L7.84762 8.99787H12.2779L16.7082 8.99787L16.8026 9.43937ZM11.3391 10.8361C10.4276 11.1373 9.75364 11.7283 9.3599 12.5719C9.15126 13.0189 9.12435 13.1725 9.12435 13.9175C9.12435 14.6524 9.15261 14.8186 9.34805 15.2357C10.5109 17.7162 13.9522 17.7669 15.1562 15.3213C15.4118 14.802 15.4315 14.7016 15.4315 13.9175C15.4315 13.1333 15.4118 13.0329 15.1562 12.5137C14.458 11.0956 12.7825 10.3591 11.3391 10.8361ZM12.9144 11.9805C13.7223 12.2208 14.291 13.0115 14.2944 13.8991C14.2988 15.0706 13.4458 15.9295 12.2779 15.9295C11.1101 15.9295 10.257 15.0706 10.2615 13.8991C10.2642 13.193 10.5219 12.6908 11.1006 12.2639C11.6611 11.8505 12.1962 11.7668 12.9144 11.9805ZM6.80719 21.0235C6.90583 21.7404 7.13625 23.2133 7.31925 24.2966C7.50224 25.3798 7.64268 26.2735 7.63132 26.2824C7.61997 26.2914 6.1726 27.1546 4.41501 28.2006L1.21938 30.1025L1.19651 28.4955L1.17364 26.8883L3.87831 23.2809C5.36588 21.2968 6.593 19.684 6.60536 19.6967C6.61772 19.7095 6.70854 20.3066 6.80719 21.0235ZM20.6793 23.2832L23.3822 26.8883L23.3594 28.4976L23.3365 30.1068L20.1829 28.2145C18.4484 27.1738 17.0001 26.3123 16.9643 26.3002C16.9286 26.2881 17.0149 25.608 17.1561 24.7889C17.4082 23.328 17.9123 19.9905 17.9123 19.7832C17.9123 19.7253 17.9267 19.678 17.9444 19.678C17.9619 19.678 19.1927 21.3004 20.6793 23.2832ZM15.4729 27.3097C15.472 27.5114 15.0722 29.4183 15.0095 29.5196C14.9786 29.5696 13.9218 29.6013 12.2779 29.6013C10.634 29.6013 9.57729 29.5696 9.54634 29.5196C9.48369 29.4183 9.0839 27.5114 9.08298 27.3097C9.08239 27.1721 9.29027 27.1625 12.2779 27.1625C15.2656 27.1625 15.4735 27.1721 15.4729 27.3097ZM15.6774 31.1904C16.3477 32.1035 16.6215 33.1024 16.5397 34.3372C16.5116 34.7619 16.4639 35.1949 16.4337 35.2994C16.3824 35.4764 16.3631 35.465 16.1499 35.1312C15.7544 34.5117 14.8793 33.806 14.5068 33.806C14.433 33.806 14.2859 33.8928 14.1798 33.9989C14.024 34.1548 13.9762 34.321 13.9308 34.8644C13.8217 36.1729 13.3037 37.5192 12.6232 38.2631L12.277 38.6415L11.9092 38.2348C11.2548 37.5114 10.8101 36.4063 10.6684 35.1516C10.5594 34.1859 10.4939 34.0007 10.2166 33.8744C10.0444 33.7958 9.94613 33.8041 9.70999 33.9167C9.31727 34.104 8.68714 34.6909 8.40593 35.1312C8.19274 35.465 8.17349 35.4764 8.12219 35.2994C8.092 35.1949 8.04423 34.7619 8.01614 34.3372C7.9344 33.1024 8.20813 32.1035 8.87846 31.1904L9.1807 30.7786H12.2779H15.3752L15.6774 31.1904Z" fill="#00B9FF"/>
</svg>
