<svg width="39" height="30" viewBox="0 0 39 30" fill="none" xmlns="http://www.w3.org/2000/svg">
<path fill-rule="evenodd" clip-rule="evenodd" d="M19.0178 0.208921C18.9235 0.327148 17.9445 2.59901 16.8423 5.25766C15.7402 7.91623 14.7883 10.1193 14.7271 10.1534C14.6658 10.1874 14.1947 10.2401 13.68 10.2703L12.7442 10.3254L11.9259 8.34444C11.4759 7.25493 11.046 6.30169 10.9707 6.22621C10.7957 6.05094 10.506 6.05071 10.3007 6.22574C10.2115 6.30177 9.75392 7.29916 9.26998 8.47228C8.79133 9.63267 8.37468 10.6091 8.34411 10.6422C8.31355 10.6752 7.37864 10.7743 6.26648 10.8624C5.15432 10.9504 4.15243 11.0576 4.04006 11.1005C3.7793 11.2002 3.63916 11.4951 3.73391 11.7448C3.7729 11.8475 4.0888 12.1729 4.43597 12.4679C5.05903 12.9975 5.06441 13.0051 4.85075 13.0601C4.73167 13.0907 3.66926 13.1885 2.48981 13.2772C0.387847 13.4355 0.341839 13.4426 0.169892 13.6362C-0.0222517 13.8524 -0.0461917 13.9935 0.0717148 14.2144C0.114214 14.2939 1.34241 15.3843 2.80103 16.6373C4.25965 17.8905 5.45307 18.9415 5.45307 18.973C5.45307 19.0045 5.08656 20.5695 4.63856 22.4507C4.02571 25.0245 3.84137 25.9167 3.894 26.0554C3.96871 26.2522 4.19111 26.4055 4.40213 26.4055C4.4989 26.4055 9.44434 23.4449 10.4799 22.767C10.6161 22.6779 10.6654 22.6832 10.8251 22.8043L11.0115 22.9455L10.2592 26.1016C9.8454 27.8375 9.50712 29.353 9.50743 29.4695C9.50813 29.7161 9.77779 30 10.0112 30C10.1002 30 12.2427 28.7337 14.7724 27.1859C17.302 25.6382 19.4082 24.3858 19.4527 24.403C19.4973 24.4201 21.5826 25.6865 24.0867 27.2171C26.5908 28.7477 28.7055 30 28.786 30C28.9639 30 29.3151 29.6634 29.3151 29.4929C29.3151 29.4249 28.9817 27.9653 28.5743 26.2493C28.1668 24.5332 27.8335 23.0792 27.8335 23.0182C27.8335 22.9571 27.9124 22.8558 28.0089 22.7931C28.1751 22.6851 28.2893 22.7435 30.1729 23.8993C34.2771 26.418 34.2913 26.4262 34.4947 26.375C34.7584 26.3086 34.9297 26.1174 34.9297 25.889C34.9297 25.783 34.5788 24.2186 34.1499 22.4126C33.721 20.6066 33.3722 19.0696 33.3748 18.997C33.3774 18.9233 34.551 17.8649 36.0338 16.5989C37.4937 15.3526 38.7188 14.2537 38.7565 14.157C38.8422 13.9366 38.7315 13.6274 38.5277 13.5182C38.4438 13.4732 37.4508 13.3642 36.321 13.2759C35.1912 13.1877 34.1449 13.0962 33.9958 13.0727L33.7247 13.0298L34.1517 12.6668C34.9368 11.9995 35.0856 11.825 35.0856 11.5724C35.0856 11.1831 34.8204 11.0412 33.9769 10.9793C32.8233 10.8947 30.4488 10.6899 30.4414 10.6744C30.4377 10.6666 30.0345 9.69417 29.5455 8.51338C29.0564 7.3326 28.594 6.30412 28.5178 6.22777C28.3519 6.06149 28.0745 6.04852 27.8712 6.19746C27.7896 6.25731 27.3529 7.19484 26.8977 8.28771L26.0723 10.2695L25.2568 10.2504C24.8083 10.2401 24.336 10.2128 24.2074 10.19C23.9779 10.1494 23.9333 10.052 21.9154 5.18522C20.5396 1.86714 19.8036 0.184073 19.6951 0.107886C19.4486 -0.0650395 19.208 -0.029173 19.0178 0.208921ZM21.2885 6.51877C22.2852 8.9255 23.1743 10.9713 23.2641 11.0649C23.4198 11.227 23.6453 11.2523 27.9894 11.5938C30.4984 11.791 32.6877 11.9781 32.8545 12.0095L33.1578 12.0667L29.4528 15.248C27.415 16.9977 25.7292 18.5005 25.7064 18.5877C25.6837 18.6747 26.1701 20.865 26.7873 23.4549C27.4046 26.0447 27.9012 28.1844 27.891 28.2098C27.8808 28.2351 27.3461 27.9319 26.7027 27.5361C21.2553 24.1839 19.6008 23.2018 19.4017 23.2018C19.2537 23.2018 17.8775 24.0013 15.0827 25.7109C12.8268 27.0911 10.9625 28.2015 10.9397 28.1787C10.9169 28.1559 11.3926 26.0584 11.9967 23.5176C12.6008 20.9769 13.0952 18.8182 13.0952 18.7206C13.0952 18.6231 13.0513 18.4867 12.9977 18.4177C12.9441 18.3486 11.2607 16.8858 9.25672 15.167L5.61324 12.0417L5.98154 11.9962C6.18413 11.9711 8.36759 11.7899 10.8337 11.5935C13.8413 11.354 15.3692 11.203 15.4744 11.1346C15.5787 11.0669 16.258 9.52265 17.4997 6.53088C18.5274 4.05492 19.3925 2.05476 19.4223 2.08601C19.452 2.11727 20.2917 4.11204 21.2885 6.51877ZM11.1393 9.29057C11.3979 9.91007 11.6016 10.4229 11.592 10.4303C11.5634 10.4522 9.62682 10.6018 9.60459 10.5838C9.59336 10.5747 9.78059 10.0958 10.0207 9.51976C10.2608 8.94363 10.4903 8.38828 10.5307 8.2856C10.5711 8.18301 10.6188 8.11362 10.6367 8.13159C10.6546 8.14956 10.8808 8.67107 11.1393 9.29057ZM28.7249 9.37629C29.0007 10.0382 29.22 10.5844 29.2123 10.59C29.1888 10.6072 27.2505 10.4452 27.2249 10.424C27.2119 10.4132 27.3826 9.96961 27.6044 9.43833C27.826 8.90698 28.0395 8.38828 28.0786 8.2856C28.1177 8.18301 28.1664 8.11557 28.1866 8.13589C28.2069 8.15621 28.4491 8.71436 28.7249 9.37629ZM9.10559 16.4827C10.6565 17.8155 11.9258 18.9496 11.9261 19.0027C11.9265 19.0559 11.7828 19.7042 11.6068 20.4435L11.2868 21.7876L11.0029 21.6351C10.8468 21.5513 10.6659 21.4831 10.6009 21.4835C10.536 21.484 9.30819 22.2028 7.87257 23.081C6.43687 23.9591 5.25625 24.6707 5.24892 24.6625C5.24166 24.6542 5.54711 23.3463 5.92781 21.7562C6.30851 20.166 6.61981 18.7946 6.61966 18.7087C6.61942 18.6227 6.55867 18.4786 6.48459 18.3884C6.41043 18.2981 5.34974 17.3663 4.1274 16.3177L1.90496 14.411L2.21688 14.3871C2.38844 14.374 3.28326 14.2996 4.20538 14.2219C5.1275 14.1441 5.97281 14.0757 6.08385 14.0699C6.24293 14.0616 6.88245 14.5722 9.10559 16.4827ZM35.0272 14.2647C36.0028 14.3406 36.8012 14.4262 36.8012 14.4549C36.8012 14.4836 35.8625 15.3111 34.7152 16.2939C32.1809 18.4649 32.2004 18.4462 32.2004 18.7153C32.2004 18.8329 32.5008 20.1931 32.8681 21.7377C33.2354 23.2825 33.5183 24.5639 33.4969 24.5854C33.4755 24.6068 32.3023 23.9175 30.8897 23.0535C29.4772 22.1895 28.2597 21.4827 28.1841 21.4827C28.1087 21.4827 27.9286 21.5559 27.7842 21.6454C27.6398 21.7348 27.5203 21.7963 27.5187 21.7821C27.5172 21.7678 27.3618 21.1232 27.1734 20.3496L26.831 18.9431L27.0398 18.7717C27.1546 18.6774 28.4242 17.5796 29.8609 16.3322L32.4733 14.0642L32.8632 14.0954C33.0776 14.1125 34.0515 14.1887 35.0272 14.2647Z" fill="#00B9FF"/>
</svg>
